# xmcd CD database file
#
# Track frame offsets:
#	150
#	17558
#	34708
#	51828
#	71155
#	89258
#	107997
#	124335
#	140545
#	155685
#	177098
#	190935
#	209330
#
# Disc length: 2998 seconds
#
# Revision: 9
# Processed by: cddbd v1.5.2PL0 Copyright (c) Steve Scherf et al.
# Submitted via: CDex 1.70beta3
#
DISCID=bb0bb40d
DTITLE=YUI - FROM ME TO YOU
DYEAR=2006
DGENRE=JPop
TTITLE0=Merry･Go･Round
TTITLE1=feel my soul
TTITLE2=Ready to love
TTITLE3=Swing of lie
TTITLE4=LIFE
TTITLE5=Blue wind
TTITLE6=I can't say
TTITLE7=Simply white
TTITLE8=Just my way
TTITLE9=Tomorrow's way
TTITLE10=I know
TTITLE11=TOKYO
TTITLE12=Spiral and Escape
EXTD=YEAR: 2006
EXTT0=
EXTT1=
EXTT2=
EXTT3=
EXTT4=
EXTT5=
EXTT6=
EXTT7=
EXTT8=
EXTT9=
EXTT10=
EXTT11=
EXTT12=
PLAYORDER=
